{"accessors" : [{"bufferView" : 0, "byteOffset" : 0, "componentType" : 5123, "count" : 19620, "type" : "SCALAR", "max" : [10857], "min" : [0]}, {"bufferView" : 1, "byteOffset" : 0, "componentType" : 5126, "count" : 10858, "type" : "VEC3", "max" : [36.0165977478027, -0.432531744241714, 5], "min" : [0.279086828231812, -116.650329589844, 0]}, {"bufferView" : 1, "byteOffset" : 12, "componentType" : 5126, "count" : 10858, "type" : "VEC3", "max" : [1, 0.99999064207077, 1], "min" : [-1, -0.999998450279236, -1]}], "asset" : {"generator" : "Aspose.3D 19.11", "version" : "2.0"}, "buffers" : [{"uri" : "buffer.bin", "byteLength" : 299840}], "bufferViews" : [{"buffer" : 0, "byteOffset" : 0, "byteLength" : 39240, "target" : 34963}, {"buffer" : 0, "byteOffset" : 39244, "byteLength" : 260592, "byteStride" : 24, "target" : 34962}], "meshes" : [{"primitives" : [{"attributes" : {"POSITION" : 1, "NORMAL" : 2}, "indices" : 0, "mode" : 4}]}], "nodes" : [{"mesh" : 0, "name" : ""}], "scene" : 0, "scenes" : [{"nodes" : [0]}]}