{
    "asset" : {
        "generator" : "Khronos glTF Blender I/O v1.0.5",
        "version" : "2.0"
    },
    "scene" : 0,
    "scenes" : [
        {
            "name" : "Scene",
            "nodes" : [
                0
            ]
        }
    ],
    "nodes" : [
        {
            "mesh" : 0,
            "name" : "Toilet Door Sign",
            "rotation" : [
                0.7071067690849304,
                0,
                0,
                0.7071067690849304
            ],
            "scale" : [
                0.009999999776482582,
                0.009999999776482582,
                0.009999999776482582
            ],
            "translation" : [
                0.07512930035591125,
                0.1749252825975418,
                0.11435288935899734
            ]
        }
    ],
    "meshes" : [
        {
            "name" : "Toilet Door Sign",
            "primitives" : [
                {
                    "attributes" : {
                        "POSITION" : 0,
                        "NORMAL" : 1
                    },
                    "indices" : 2
                }
            ]
        }
    ],
    "accessors" : [
        {
            "bufferView" : 0,
            "componentType" : 5126,
            "count" : 11184,
            "max" : [
                46.62868118286133,
                3.143644332885742,
                77.65404510498047
            ],
            "min" : [
                -43.329566955566406,
                -1.8563556671142578,
                -74.98292541503906
            ],
            "type" : "VEC3"
        },
        {
            "bufferView" : 1,
            "componentType" : 5126,
            "count" : 11184,
            "type" : "VEC3"
        },
        {
            "bufferView" : 2,
            "componentType" : 5123,
            "count" : 20088,
            "type" : "SCALAR"
        }
    ],
    "bufferViews" : [
        {
            "buffer" : 0,
            "byteLength" : 134208,
            "byteOffset" : 0
        },
        {
            "buffer" : 0,
            "byteLength" : 134208,
            "byteOffset" : 134208
        },
        {
            "buffer" : 0,
            "byteLength" : 40176,
            "byteOffset" : 268416
        }
    ],
    "buffers" : [
        {
            "byteLength" : 308592,
            "uri" : "data:application/octet-stream;base64,"
        }
    ]
}
